<?xml version="1.0" encoding="utf-8"?>
<!-- Generator: Adobe Illustrator 21.0.0, SVG Export Plug-In . SVG Version: 6.00 Build 0)  -->
<svg version="1.1" id="Capa_1" xmlns="http://www.w3.org/2000/svg" xmlns:xlink="http://www.w3.org/1999/xlink" x="0px" y="0px"
	 viewBox="0 0 100 100" style="enable-background:new 0 0 100 100;" xml:space="preserve">
<path d="M50,0C22.4,0,0,22.4,0,50c0,27.6,22.4,50,50,50c27.6,0,50-22.4,50-50C100,22.4,77.6,0,50,0z M62.4,51.8h-8.1c0,13,0,29,0,29
	H42.2c0,0,0-15.8,0-29h-5.7V41.5h5.7v-6.6c0-4.7,2.3-12.2,12.2-12.2l8.9,0v9.9c0,0-5.4,0-6.5,0c-1.1,0-2.6,0.5-2.6,2.8v6h9.2
	L62.4,51.8z"/>
</svg>
