<?xml version="1.0" encoding="utf-8"?>
<!-- Generator: Adobe Illustrator 21.0.0, SVG Export Plug-In . SVG Version: 6.00 Build 0)  -->
<svg version="1.1" id="Слой_1_копия_2" xmlns="http://www.w3.org/2000/svg" xmlns:xlink="http://www.w3.org/1999/xlink"
	 x="0px" y="0px" viewBox="0 0 989.6 323.9" enable-background="new 0 0 989.6 323.9" xml:space="preserve">
<path fill="#66C4FF" d="M264.9,186.9H145.7c-4.8,0-8.7-3.9-8.7-8.7V59c0-5.1-4.3-9-9.3-8.7C56.3,55.1,0,114.4,0,186.9
	c0,75.6,61.4,137,137,137c72.5,0,131.8-56.3,136.6-127.6C273.9,191.2,269.9,186.9,264.9,186.9z"/>
<path fill="#FFA1BD" d="M267.1,71.9c0,0,21.5-4.9,51.7-27.2c0,0-22.1-29.2-51.4-41c0,0-17.9,31.2-18.4,50.1L267.1,71.9z"/>
<path fill="#FF8FB1" d="M267,75.1c0,0,25.5-2.9,38.8-8.3c0,0,8.2-40.2-11.9-66.8c0,0-15.1,8.1-25.5,17.4c0,0-14.4,29-17.1,42
	L267,75.1z"/>
<path fill="#363636" d="M266.9,57l13.9,19.8l2.5-4.1c0,0-0.1-8.8-9.1-23c-14.2-9-23-9.1-23-9.1l-4.1,2.5L266.9,57z"/>
<path fill="#FFA1BD" d="M236.2,87.6l46,45.4c0,0,14.1-41.3-12-79.4c-20.3-13.9-41.5-16.4-56.9-15.7c-6.9,6.9-12.7,13.5-12.7,13.5
	L236.2,87.6z"/>
<path fill="#FF8FB1" d="M212.6,110.4c0,0,5.7,32.6,28.2,53.5c19.9-16.1,36.8-27.6,41.3-30.9L212.6,110.4z"/>
<path fill="#FF8FB1" d="M214.1,110.2c0,0-32.6-5.7-53.5-28.2c19.6-16.3,34.5-29.7,40.4-34.8L214.1,110.2z"/>
<path fill="#363636" d="M274.8,58.2c0,0,20.9-4.3,37.8-15.1l-8.7-1.3l5.2-10.7c0,0-17.3,12.8-36.5,21.5L274.8,58.2z"/>
<path fill="#363636" d="M265.7,49.1c0,0,4.3-20.9,15.1-37.8l1.3,8.7l10.7-5.2c0,0-12.8,17.3-21.5,36.5L265.7,49.1z"/>
<path fill="#6A85FF" d="M0,186.9c0,75.6,61.4,137,137,137l0,0C48.7,303.6,15.9,251,0.4,187.8L0,186.9z"/>
<circle cx="72.4" cy="147.3" r="15.2"/>
<circle fill="#FFFFFF" cx="78.1" cy="143.8" r="3.7"/>
<path opacity="0.46" fill="#E7D4C5" enable-background="new    " d="M242.6,144.9c0,0,2.3-0.4,7.2,1.3c4.4,1.5,6.6,2.7,6.9,3
	C256.4,149.6,248.3,150.5,242.6,144.9z"/>
<path fill="#E6CAA6" d="M259.6,136.2c-1.1-0.6-2.7-1.6-5.5-2.6c-0.5-0.2-1-0.3-1.5-0.4c-2.4-0.6-4.3-0.6-5.3-0.6
	c-0.7,0-1.4,0.5-1.6,1.2L245,136l-0.8,2.6l-1.7,5.5c-0.1,0.3-0.1,0.6,0,0.9c0,0,2.3-0.4,7.2,1.3c4.4,1.5,6.6,2.7,6.9,3
	c0.1-0.2,0.2-0.4,0.3-0.6l1.8-5.6l0.7-2.1l0.9-2.8C260.7,137.3,260.3,136.5,259.6,136.2z"/>
<path fill="#902841" d="M163.3,92.4c0,0,1.5,1.8,2.5,6.9c0.9,4.6,0.9,7.1,0.9,7.5C166.1,106.7,161.2,101,163.3,92.4z"/>
<path fill="#E9426C" d="M179.4,102.9c0-1.3,0-3.2-0.5-6.1c-0.1-0.5-0.2-1.1-0.4-1.5c-0.7-2.4-1.6-4-2.1-4.8c-0.4-0.6-1.1-1-1.8-0.8
	l-2.2,0.5l-2.7,0.6l-5.6,1.2c-0.3,0.1-0.6,0.2-0.8,0.4c0,0,1.5,1.8,2.5,6.9c0.9,4.6,0.9,7.1,0.9,7.5c0.2,0,0.4,0,0.7,0l5.8-1.2
	l2.2-0.5l2.8-0.6C178.9,104.4,179.5,103.7,179.4,102.9z"/>
<g>
	<path fill="#6B1830" d="M191.4,93.3c0.8,0,1.8,0.5,2.3,1.1c1,1.4,0.2,3.5,1.2,4.8c1.2,1.4,3.7,0.7,5,2c0.9,0.8,0.8,2.2,0.8,3.4
		c0,1.2,0.3,2.6,1.3,3.1c0.8,0.4,1.8,0.1,2.7,0.3c1.2,0.3,2.3,2.1,2.3,3.5l-7.1,5.9c-0.3,0.2-0.6,0.4-0.9,0.5
		c-0.3-0.6-2.1-4.1-6.7-9.8c-5.1-6.3-8.6-7.8-8.6-7.8c0.1-0.4,0.4-0.9,0.8-1.2L191.4,93.3z"/>
	<path fill="#902841" d="M183.8,100.3c0,0,3.4,1.4,8.6,7.8c4.6,5.7,6.4,9.2,6.7,9.8c-0.8,0.3-1.8,0.1-2.5-0.5
		c-1.3-1.1-3.8-2.6-6.5-5.9l1.3-1.2l-1.8-2.1l-1.2,1.1c-2.3-3.1-3.3-5.4-4.2-6.8C183.7,101.9,183.6,101.1,183.8,100.3z"/>
	<path fill="#FFD35B" d="M220.1,81.4c0.5-0.4,1.2-0.3,1.7,0.2s0.4,1.3-0.1,1.8l-13,11.6c-0.5-0.7-1.1-1.3-1.6-1.9L220,81.5
		L220.1,81.4z"/>
	<path fill="#E9426C" d="M194.7,90.5c1.4,0.1,2.7,1.1,3.1,2.4c0.2,0.9,0,2,0.5,2.8c1,1.6,3.7,1,5.1,2.3c1.7,1.7,0.3,5.3,2.3,6.5
		c0.8,0.5,2,0.3,2.8,0.8c1.3,0.7,1.5,2.3,1.3,3.8l-2.7,2.3c0.1-1.4-1.1-3.2-2.3-3.5c-0.9-0.2-1.9,0.1-2.7-0.3
		c-1.1-0.5-1.3-1.9-1.3-3.1s0-2.6-0.8-3.4c-1.3-1.3-3.8-0.6-5-2c-1.1-1.3-0.3-3.4-1.2-4.8c-0.5-0.6-1.4-1.1-2.3-1.1L194.7,90.5z"/>
	<path fill="#E6CAA6" d="M200.5,87.9c1.3,0.8,3.8,2.3,6.5,5.2c0.5,0.6,1.1,1.2,1.6,1.9c2.9,3.6,4.2,6.4,5.2,8.1
		c0.6,1.1,0.4,2.5-0.6,3.3l-3.5,2.9c0.2-1.5-0.1-3.1-1.3-3.8c-0.9-0.5-2-0.3-2.8-0.8c-2.1-1.2-0.6-4.9-2.3-6.5
		c-1.4-1.3-4.1-0.7-5.1-2.3c-0.5-0.8-0.3-1.9-0.5-2.8c-0.3-1.4-1.7-2.4-3.1-2.4l2.7-2.3C198.3,87.4,199.5,87.3,200.5,87.9z"/>
	<path fill="#6B1830" d="M170.6,110.2c0.1,0,0.2,0.1,0.3,0.1c1.9,0.3,4-1.1,5.8-0.3c0.9,0.4,1.6,1.4,1.5,2.4c0,0.8-0.4,1.5-0.6,2.2
		c-0.2,0.7-0.1,1.6,0.5,2.1c0.4,0.4,1.1,0.4,1.6,0.3c1,0,2.1,0,3,0.3c1,0.4,1.8,1.1,1.9,2.2c0.1,1.1-0.5,2.1-1,3c-0.5,1-0.8,2.3,0,3
		c1.4,1.4,4.4-0.9,5.7,0.7c0.5,0.6,0.4,1.3,0.1,2L177,138c-0.3,0.3-0.7,0.4-1,0.6c-0.3-0.7-2.1-4.5-7-10.7c-5.4-6.9-9.2-8.5-9.2-8.5
		c0.2-0.5,0.5-0.9,0.9-1.3L170.6,110.2z"/>
	<path fill="#902841" d="M159.9,119.5c0,0,3.8,1.6,9.2,8.5c4.9,6.3,6.7,10,7,10.7c-0.9,0.3-2,0.1-2.8-0.5c-1.3-1.1-3.9-2.8-6.7-6.1
		l1.7-1.5l-1.7-1.8l-1.5,1.3c-2.8-3.8-4-6.7-5-8.2C159.6,121.2,159.6,120.3,159.9,119.5z"/>
	<path fill="#E6CAA6" d="M179.1,105.8c1.4,0.9,4.1,2.5,6.9,5.5c0.6,0.6,1.2,1.4,1.8,2.1l0,0c3.1,4,4.4,6.9,5.4,8.8
		c0.6,1.2,0.3,2.7-0.8,3.6l-3,2.4c0.3-0.7,0.3-1.4-0.1-2c-1.3-1.6-4.3,0.7-5.7-0.7c-0.8-0.8-0.5-2.1,0-3c0.5-1,1.2-1.9,1-3
		c-0.1-1-1-1.8-1.9-2.2c-1-0.4-2-0.3-3-0.3c-0.6,0-1.2,0-1.6-0.3c-0.6-0.5-0.7-1.4-0.5-2.1s0.5-1.5,0.6-2.2c0-1-0.6-2-1.5-2.4
		c-1.8-0.8-3.9,0.6-5.8,0.3c-0.1,0-0.2,0-0.3-0.1l5-4C176.6,105.3,178,105.2,179.1,105.8z"/>
	<path fill="#FFD35B" d="M167.7,129.8c-0.3-0.4-0.6-0.8-1-1.1l-1.7,1.5l-2.1,1.8c-1.5,1.8,0.6,2.8,1.4,2c0.5-0.5,2.2-1.9,2.2-1.9
		l1.7-1.5l-0.2-0.3C168,130.1,167.9,130,167.7,129.8z"/>
	<path fill="#FFD35B" d="M188.3,109.3l-2.3,2c0.6,0.6,1.2,1.4,1.8,2.1l2.2-2l1.3-1.2l-1.8-2.1L188.3,109.3z"/>
	
		<ellipse id="XMLID_48_" transform="matrix(0.8261 -0.5636 0.5636 0.8261 -41.6389 121.6678)" fill="#FF5D6E" cx="176.3" cy="128.3" rx="1.1" ry="1.1"/>
	
		<ellipse id="XMLID_47_" transform="matrix(0.8261 -0.5636 0.5636 0.8261 -36.4863 122.0092)" fill="#FCC01F" cx="179.4" cy="120.1" rx="1.1" ry="1.1"/>
	
		<ellipse id="XMLID_46_" transform="matrix(0.8261 -0.5635 0.5635 0.8261 -39.5231 116.5122)" fill="#FCC01F" cx="169" cy="122.3" rx="1.1" ry="1.1"/>
	
		<ellipse id="XMLID_45_" transform="matrix(0.826 -0.5636 0.5636 0.826 -25.2642 125.9609)" fill="#FF5D6E" cx="191.4" cy="103.9" rx="1.1" ry="1.1"/>
	
		<ellipse id="XMLID_44_" transform="matrix(0.826 -0.5636 0.5636 0.826 -26.7416 134.3577)" fill="#FF5D6E" cx="204.3" cy="110.5" rx="1.1" ry="1.1"/>
	
		<ellipse id="XMLID_43_" transform="matrix(0.826 -0.5636 0.5636 0.826 -28.0905 130.957)" fill="#FCC01F" cx="198.1" cy="111" rx="1.1" ry="1.1"/>
	
		<ellipse id="XMLID_42_" transform="matrix(0.8262 -0.5634 0.5634 0.8262 -21.0421 124.7812)" fill="#FCC01F" cx="191.7" cy="96.5" rx="1.1" ry="1.1"/>
	
		<ellipse id="XMLID_41_" transform="matrix(0.8261 -0.5635 0.5635 0.8261 -34.1166 118.029)" fill="#FF5D6E" cx="174.2" cy="114.3" rx="1.1" ry="1.1"/>
	
		<ellipse id="XMLID_40_" transform="matrix(0.8261 -0.5636 0.5636 0.8261 -34.5429 114.8642)" fill="#FCC01F" cx="168.8" cy="113.4" rx="1.1" ry="1.1"/>
	<path id="XMLID_39_" fill="#A3DE83" d="M176.3,123.2L176.3,123.2c0.1,0.3-0.1,0.7-0.4,0.8l-4.5,1.5c-0.3,0.1-0.7-0.1-0.8-0.4l0,0
		c-0.1-0.3,0.1-0.7,0.4-0.8l4.5-1.5C175.8,122.7,176.2,122.9,176.3,123.2z"/>
	<path id="XMLID_37_" fill="#A3DE83" d="M193.3,98.9L193.3,98.9c0.1,0.3-0.1,0.7-0.4,0.8l-4.5,1.5c-0.3,0.1-0.7-0.1-0.8-0.4l0,0
		c-0.1-0.3,0.1-0.7,0.4-0.8l4.5-1.5C192.9,98.4,193.2,98.6,193.3,98.9z"/>
	<path id="XMLID_36_" fill="#FF5D6E" d="M171.3,116.4L171.3,116.4c0.4,0.2,0.5,0.6,0.4,1l-0.9,2.1c-0.2,0.4-0.6,0.5-1,0.4l0,0
		c-0.4-0.2-0.5-0.6-0.4-1l0.9-2.1C170.5,116.4,170.9,116.2,171.3,116.4z"/>
	<path id="XMLID_35_" fill="#A3DE83" d="M181.8,124.2L181.8,124.2c0.4,0.2,0.5,0.6,0.4,1l-0.9,2.1c-0.2,0.4-0.6,0.5-1,0.4l0,0
		c-0.4-0.2-0.5-0.6-0.4-1l0.9-2.1C181,124.2,181.4,124,181.8,124.2z"/>
	<path id="XMLID_34_" fill="#FF5D6E" d="M197.2,103.9L197.2,103.9c0.4,0.2,0.5,0.6,0.4,1l-0.9,2.1c-0.2,0.4-0.6,0.5-1,0.4l0,0
		c-0.4-0.2-0.5-0.6-0.4-1l0.9-2.1C196.4,103.9,196.8,103.7,197.2,103.9z"/>
	<path opacity="0.46" fill="#E7D4C5" enable-background="new    " d="M178.2,107c3.3,2.4,6.2,5.4,8.5,8.7c0.9,1.4,1.8,2.8,2.3,4.4
		c0.5,1.3,0.5,2.7,0,4.1c-1.1,3.3-3.9,5.9-6.5,8c-2.3,1.9-4.8,3.5-7.2,5.2c0.4,0.7,0.6,1.1,0.7,1.3c0.4-0.1,0.7-0.3,1-0.6l12.4-9.8
		l3-2.4c1.1-0.9,1.4-2.4,0.8-3.6c-1-1.9-2.4-4.8-5.4-8.8l0,0c-0.6-0.8-1.2-1.5-1.8-2.1c-2.8-3-5.5-4.6-6.9-5.5
		c-0.8-0.5-1.9-0.6-2.8-0.2C177,106.1,177.6,106.6,178.2,107z"/>
	<path opacity="0.46" fill="#E7D4C5" enable-background="new    " d="M205.5,93.8c2.2,2.4,4.1,5.3,4.7,8.6c0.6,3.2-1.8,6-4,8
		c-2.5,2.2-5.3,3.9-8.1,5.8c0.5,0.9,0.8,1.5,0.9,1.7c0.3-0.1,0.6-0.3,0.9-0.5l7.1-5.9l2.7-2.3l3.5-2.9c0.9-0.8,1.2-2.2,0.6-3.3
		c-1-1.7-2.3-4.4-5.2-8.1c-0.5-0.7-1.1-1.3-1.6-1.9c-2.7-2.9-5.2-4.3-6.5-5.2c-0.8-0.5-1.9-0.5-2.7,0
		C200.7,89.4,203.3,91.5,205.5,93.8z"/>
	<g>
		<g>
			<g>
				<path fill="#B54976" d="M160,119.6c0,0,0.3,0.1,0.9,0.5c0.6,0.3,1.3,0.9,2.2,1.5c1.8,1.4,4.2,3.6,6.4,6.3s3.9,5.5,4.9,7.5
					c0.5,1,0.9,1.9,1.1,2.5c0.2,0.6,0.4,0.9,0.3,1c-0.1,0-0.7-1.2-1.8-3.2s-2.8-4.6-5-7.3s-4.5-4.9-6.2-6.3
					C161.2,120.5,160,119.7,160,119.6z"/>
			</g>
		</g>
	</g>
	<g>
		<g>
			<g>
				<path fill="#B54976" d="M184,100.2c0-0.1,1.2,0.6,2.8,2s3.6,3.5,5.7,5.9c2.1,2.4,3.8,4.8,4.8,6.7c1.1,1.8,1.6,3,1.5,3
					s-0.8-1.1-1.9-2.8c-1.2-1.7-2.9-4.1-4.9-6.5c-2.1-2.4-4-4.5-5.5-6C185,101.1,184,100.3,184,100.2z"/>
			</g>
		</g>
	</g>
	<path fill="none" stroke="#D39A88" stroke-width="0.4105" stroke-miterlimit="10" d="M195.2,90.4c0.8,0.4,2.3,1.6,2.5,2.5
		s0,2,0.5,2.8c1,1.6,3.7,1,5.1,2.3c1.7,1.7,0.3,5.3,2.3,6.5c0.8,0.5,2,0.3,2.8,0.8c1.3,0.7,1.5,2.3,1.3,3.8"/>
	<path fill="none" stroke="#F6B4B7" stroke-width="0.4105" stroke-miterlimit="10" d="M207.1,111.5c0.1-1.4-1.1-3.2-2.3-3.5
		c-0.9-0.2-1.9,0.1-2.7-0.3c-1.1-0.5-1.3-1.9-1.3-3.1s0-2.6-0.8-3.4c-1.3-1.3-3.8-0.6-5-2c-1.1-1.3-0.3-3.4-1.2-4.8
		c-0.5-0.6-1.4-1.1-2.3-1.1"/>
	<path fill="none" stroke="#EF7F9A" stroke-width="0.4105" stroke-miterlimit="10" d="M170.6,110.2c0.1,0,0.2,0.1,0.3,0.1
		c1.9,0.3,4-1.1,5.8-0.3c0.9,0.4,1.6,1.4,1.5,2.4c0,0.8-0.4,1.5-0.6,2.2c-0.2,0.7-0.1,1.6,0.5,2.1c0.4,0.4,1.1,0.4,1.6,0.3
		c1,0,2.1,0,3,0.3c1,0.4,1.8,1.1,1.9,2.2c0.1,1.1-0.5,2.1-1,3c-0.5,1-0.8,2.3,0,3c1.4,1.4,4.4-0.9,5.7,0.7c0.5,0.6,0.4,1.3,0.1,2"/>
</g>
<g>
	<g>
		<path fill="none" d="M214,139.1c0.1,0,0.2,0,0.3,0"/>
		<g>
			<path fill="#E9426C" d="M200.2,146.5c0,0,0.1,0.1,0.2,0.2c0,0,0,0,0,0.1c0,0,0.1,0.1,0.1,0.2l0,0c0,0.1,0.1,0.1,0.1,0.2l0,0
				c0,0,0,0.1,0.1,0.1c0,0,0,0.1,0.1,0.1c0,0.1,0.1,0.2,0.1,0.3s0.1,0.2,0.1,0.3s0.1,0.2,0.1,0.3s0,0.1,0.1,0.2
				c0,0.1,0.1,0.3,0.1,0.4c0.1,0.2,0.1,0.3,0.2,0.5c0,0.1,0.1,0.2,0.1,0.3s0,0.2,0.1,0.3c0,0.1,0,0.2,0.1,0.2c0,0.1,0,0.2,0.1,0.3
				c0,0.1,0,0.2,0.1,0.3c0,0.3,0.1,0.5,0.1,0.8c0,0.1,0,0.2,0,0.3s0,0.2,0,0.3l0,0c0,0.1,0,0.2,0,0.3s0,0.2,0,0.3c0,0.2,0,0.3,0,0.5
				c0,0.1,0,0.2,0,0.3s0,0.2,0,0.3c0,0.2,0,0.4,0,0.7c0,0.1,0,0.2,0,0.3s0,0.2,0,0.3s0,0.3-0.1,0.4c0,0.1,0,0.2,0,0.3
				c0,0.2-0.1,0.3-0.1,0.5c0,0.1-0.1,0.2-0.1,0.4c-0.1,0.3-0.1,0.5-0.2,0.8c0,0.1-0.1,0.3-0.1,0.4c0,0.1-0.1,0.3-0.1,0.4
				c0,0.1-0.1,0.3-0.1,0.4c0,0.1-0.1,0.2-0.1,0.3l0,0l-0.1,0.2c0,0.1-0.1,0.2-0.1,0.3c-0.1,0.1-0.1,0.3-0.2,0.4
				c-0.1,0.1-0.1,0.3-0.2,0.4c-0.1,0.2-0.2,0.3-0.2,0.5c-0.1,0.3-0.3,0.5-0.4,0.8c-0.2,0.4-0.5,0.9-0.8,1.3
				c-2.8-0.1-5.5-0.9-7.9-2.3c9.6-5.6,9.3-13.5,9.3-13.5l0,0c0,0,0,0,0-0.1c0,0,0-0.1,0-0.2C200.2,146.7,200.2,146.6,200.2,146.5z"
				/>
			<path fill="#E9426C" d="M183.1,145.2c7,7.2,16.3,1.3,16.3,1.3s0.1-0.1,0.3-0.2c-0.1,0.1-0.1,0.1-0.1,0.1s-3.3,8-14.5,8
				C183.5,151.6,182.8,148.4,183.1,145.2z"/>
			<path fill="#E9426C" d="M187.8,134.9c1.2-1.2,2.5-2.2,4-2.9c-1.6,8.3,5.7,12.9,7.7,14c-1.3,0-11-0.1-13.4-8.9
				C186.5,136.3,187.1,135.6,187.8,134.9z"/>
			<path fill="#E9426C" d="M208.2,132.8c-7.1,2.9-8,9.7-8.1,12.8c-0.1,0.2-0.2,0.3-0.3,0.4l0,0c0,0,0,0-0.1,0l0,0
				c-1.3-1.9-5.4-9.5,0.4-15.8C203,130.3,205.8,131.2,208.2,132.8z"/>
			<path fill="#E9426C" d="M214,139.1c1.4,2.7,1.9,5.7,1.7,8.6c-7.1-5.4-13.2-3-15.4-1.8l0,0c0,0,0,0-0.1,0l0,0c0-0.1,0-0.3,0-0.4
				C201.7,143.4,206.2,138.1,214,139.1z"/>
			<path fill="#FFFFFF" d="M208.2,132.8c0.4,0.2,0.7,0.5,1.1,0.8c0.6,0.4,1.1,0.9,1.6,1.4c1.3,1.3,2.3,2.7,3,4.2
				c-7.8-1-12.3,4.2-13.8,6.4C200.2,142.5,201.2,135.6,208.2,132.8z"/>
			<path fill="#E9426C" d="M200.1,146C200.2,146,200.2,146,200.1,146c2.2,0.1,9.1,1.1,12.7,9.7c-0.6,0.8-1.2,1.6-1.9,2.3
				c-1.1,1.1-2.3,2-3.5,2.7c0.6-10-6-13.8-7.3-14.4l0,0C200.2,146.2,200.1,146.1,200.1,146z"/>
			<path fill="#FFFFFF" d="M200.2,146L200.2,146c2.2-1.2,8.4-3.6,15.5,1.8c-0.2,2.8-1.2,5.6-2.8,8
				C209.3,147.1,202.3,146.1,200.2,146z"/>
			<path fill="#FFFFFF" d="M199.6,146.4c0,0,0,0,0.1-0.1c0.1,0,0.1-0.1,0.2-0.1h0.1c0,0,0,0,0.1,0l0,0c0.1,0.1,0.1,0.2,0.1,0.2v-0.1
				c1.3,0.6,7.9,4.4,7.3,14.4c-2.6,1.5-5.6,2.2-8.6,2.1c0.3-0.4,0.6-0.9,0.8-1.3c0.2-0.3,0.3-0.5,0.4-0.8c0.1-0.2,0.2-0.3,0.2-0.5
				c0.1-0.1,0.1-0.3,0.2-0.4c0.1-0.1,0.1-0.3,0.2-0.4c0-0.1,0.1-0.2,0.1-0.3l0.1-0.2l0,0c0-0.1,0.1-0.2,0.1-0.3
				c0.1-0.1,0.1-0.3,0.1-0.4c0-0.1,0.1-0.3,0.1-0.4c0-0.1,0.1-0.3,0.1-0.4c0.1-0.3,0.1-0.5,0.2-0.8c0-0.1,0.1-0.2,0.1-0.4
				s0.1-0.3,0.1-0.5c0-0.1,0-0.2,0-0.3s0-0.3,0.1-0.4c0-0.1,0-0.2,0-0.3s0-0.2,0-0.3c0-0.2,0-0.5,0-0.7c0-0.1,0-0.2,0-0.3
				s0-0.2,0-0.3c0-0.2,0-0.3,0-0.5c0-0.1,0-0.2,0-0.3s0-0.2,0-0.3l0,0c0-0.1,0-0.2,0-0.3s0-0.2,0-0.3c0-0.3-0.1-0.6-0.1-0.8
				c0-0.1,0-0.2-0.1-0.3c0-0.1,0-0.2-0.1-0.3c0-0.1,0-0.2-0.1-0.2c0-0.1,0-0.2-0.1-0.3c0-0.1-0.1-0.2-0.1-0.3
				c-0.1-0.2-0.1-0.4-0.2-0.5c0-0.1-0.1-0.3-0.1-0.4c0-0.1,0-0.1-0.1-0.2c0-0.1-0.1-0.2-0.1-0.3s-0.1-0.2-0.1-0.3s-0.1-0.2-0.1-0.3
				c0,0,0-0.1-0.1-0.1c0,0,0-0.1-0.1-0.1l0,0c0-0.1-0.1-0.1-0.1-0.2l0,0c0-0.1-0.1-0.1-0.1-0.2v-0.1c-0.1-0.1-0.1-0.2-0.2-0.2
				c0,0.1,0,0.3,0,0.4c0,0.1,0,0.1,0,0.2v0.1l0,0c0,0,0.4,7.8-9.3,13.5c-1.1-0.7-2.2-1.5-3.1-2.4c-1.1-1.1-2-2.3-2.7-3.6
				C196.2,154.5,199.6,146.4,199.6,146.4z"/>
			<path fill="#FFFFFF" d="M186,137.1c2.4,8.8,12.2,8.9,13.4,8.9c0.1,0.1,0.2,0.1,0.3,0.2c0,0.1-0.1,0.1-0.1,0.2
				c-0.2,0.1-0.3,0.2-0.3,0.2s-9.3,6-16.3-1.3C183.3,142.4,184.3,139.5,186,137.1z"/>
			<path fill="#FFFFFF" d="M191.8,132c2.6-1.4,5.6-2,8.5-1.9c-5.8,6.3-1.8,13.8-0.4,15.8c-0.1,0-0.2,0-0.2,0s0,0-0.1,0
				C197.5,144.9,190.1,140.3,191.8,132z"/>
			<path fill="none" d="M199.9,146L199.9,146c0.1-0.1,0.2-0.3,0.3-0.4c0,0.1,0,0.3,0,0.4l0,0c0,0,0,0,0.1,0c0,0,0,0-0.1,0
				c0,0.1,0,0.2,0,0.3l0,0v0.1c0,0-0.1-0.1-0.1-0.2l0,0H200c0,0,0,0-0.1,0s-0.1,0.1-0.2,0.1c0,0,0.1-0.1,0.1-0.2
				c-0.1,0-0.2-0.1-0.3-0.2c0.1,0,0.1,0,0.1,0S199.7,146,199.9,146L199.9,146C199.8,146,199.8,146,199.9,146z"/>
			<path fill="none" d="M200.1,146c-0.1,0-0.2,0.1-0.2,0.1s0,0-0.1,0"/>
			<path fill="none" d="M199.9,146c0.1,0,0.2,0,0.3,0"/>
			<path fill="none" d="M212.9,155.8L212.9,155.8"/>
			<path fill="none" d="M191.8,131.7c0,0.1,0,0.2-0.1,0.3"/>
			<path fill="none" d="M207.4,160.7C207.4,160.8,207.4,160.8,207.4,160.7"/>
			<path fill="none" d="M199.8,146.1C199.8,146.2,199.8,146.2,199.8,146.1"/>
			<path fill="none" d="M200,146.3c0,0,0.1,0,0.1,0.1"/>
			<path fill="none" d="M199.8,146L199.8,146c0.1,0.1,0.1,0.1,0.1,0.2l0.1,0.1"/>
			<line fill="none" x1="200.2" y1="146.5" x2="200.2" y2="146.5"/>
			<path fill="none" d="M200.3,130.1L200.3,130.1"/>
			<line fill="none" x1="200.2" y1="146.5" x2="200.2" y2="146.5"/>
			<path fill="none" d="M200.1,146L200.1,146"/>
			<path fill="none" d="M190.9,160.5L190.9,160.5"/>
			<path fill="none" d="M199.9,146C199.9,146,199.8,146,199.9,146c-0.1,0.1-0.1,0.1-0.1,0.2"/>
			<path fill="none" d="M185.1,154.5L185.1,154.5"/>
		</g>
		<path fill="#FFD35B" d="M209.3,133.5l22.8-22.7c0.4-0.4,1.1-0.4,1.5,0l0,0c0.4,0.4,0.4,1.1,0,1.5l-22.7,22.6
			C210.4,134.4,209.9,134,209.3,133.5z"/>
		<path opacity="0.46" fill="#E7D4C5" enable-background="new    " d="M208.8,159.8c-2.5,1.8-5.3,2.7-8.2,3c-3.2,0.2-6.4-0.4-9.2-2
			c-1.3-0.7-2.5-1.6-3.6-2.7c-0.4-0.4-0.7-0.8-1.1-1.2c1.9,1.3,4.1,3.3,6.4,3.8c8.5,1.8,17.4-1.8,19.5-10.9c2-8.8-3.7-15.8-11.9-18
			c-3-0.8-7.5,0-10.4,1.1c2.4-1.6,5.1-2.5,7.8-2.7c2.9-0.2,5.9,0.3,8.6,1.7c1.5,0.8,2.9,1.8,4.2,3c0.5,0.5,1,1,1.4,1.6
			c0.3,0.4,0.5,0.7,0.8,1.1c1.6,2.4,2.4,5.2,2.6,8c0.2,2.9-0.5,5.8-1.9,8.5c-0.7,1.4-1.7,2.8-2.9,4
			C210.2,158.7,209.5,159.3,208.8,159.8z"/>
		<g>
			<g>
				<g>
					<path fill="#CC396A" d="M191.8,132c0.1,0-0.3,1-0.1,2.6c0.1,0.8,0.3,1.7,0.6,2.8c0.3,1,0.8,2.1,1.4,3.1c0.6,1.1,1.4,2,2.1,2.8
						c0.7,0.8,1.5,1.4,2.1,1.8c1.4,0.9,2.3,1.3,2.3,1.4c0,0.1-1-0.2-2.5-1c-0.7-0.4-1.6-1-2.3-1.8s-1.5-1.8-2.2-2.8
						c-0.7-1.1-1.1-2.2-1.4-3.3c-0.3-1-0.5-2-0.5-2.9c0-0.8,0.1-1.5,0.2-2C191.6,132.2,191.7,132,191.8,132z"/>
				</g>
			</g>
		</g>
		<g>
			<g>
				<g>
					<path fill="#CC396A" d="M208.1,132.7c0,0.1-0.9,0.3-2.1,1.2c-1.2,0.9-2.6,2.5-3.8,4.6c-1.2,2-1.8,4-2,5.5s0.1,2.4,0,2.5
						c0,0-0.5-0.9-0.4-2.5s0.7-3.7,1.9-5.8s2.7-3.7,4-4.6c0.7-0.4,1.3-0.7,1.7-0.8C207.8,132.7,208,132.6,208.1,132.7z"/>
				</g>
			</g>
		</g>
		<g>
			<g>
				<g>
					<path fill="#CC396A" d="M199.1,146.7c-0.1,0,0.5-1,2-1.7c0.7-0.4,1.7-0.7,2.8-0.8s2.3-0.1,3.5,0c2.5,0.3,4.7,0.9,6.2,1.8
						c0.7,0.4,1.2,0.8,1.6,1.2c0.3,0.3,0.5,0.5,0.5,0.6c-0.1,0.1-0.8-0.7-2.2-1.4s-3.6-1.3-6-1.6c-1.2-0.1-2.4-0.1-3.5,0
						c-1,0.1-2,0.4-2.7,0.7C199.8,145.9,199.2,146.8,199.1,146.7z"/>
				</g>
			</g>
		</g>
		<g>
			<g>
				<g>
					<path fill="#CC396A" d="M199.4,146c0,0,0.3,0,0.7,0.2c0.4,0.1,1,0.4,1.7,0.8c1.4,0.8,2.9,2.5,4.1,4.6c1.3,2.1,1.7,4.4,1.7,6
						s-0.2,2.6-0.3,2.6s0.1-1-0.1-2.5c-0.1-1.5-0.6-3.7-1.8-5.7c-1.2-2.1-2.6-3.7-3.9-4.6C200.4,146.3,199.4,146.1,199.4,146z"/>
				</g>
			</g>
		</g>
		<g>
			<g>
				<g>
					<path fill="#CC396A" d="M199.8,145.9c0,0,0.2,0.2,0.4,0.6c0.2,0.4,0.3,1.1,0.2,2c-0.2,1.7-1,3.9-2.4,6s-3.2,3.7-4.6,4.6
						c-1.4,0.9-2.4,1.3-2.4,1.2s0.9-0.5,2.2-1.5s3-2.5,4.3-4.6c1.4-2.1,2.2-4.2,2.5-5.8C200.3,146.9,199.7,145.9,199.8,145.9z"/>
				</g>
			</g>
		</g>
		<g>
			<g>
				<g>
					<path fill="#CC396A" d="M183.4,145.7c0,0,0.1,0.2,0.5,0.5s0.9,0.7,1.7,1.1c0.8,0.4,1.7,0.8,2.7,1.1c1.1,0.3,2.3,0.6,3.5,0.5
						c1.3-0.1,2.5-0.4,3.6-0.7s2-0.6,2.8-1c1.5-0.8,2.1-1.7,2.1-1.7c0.1,0-0.4,1.1-2,2c-0.8,0.4-1.7,0.8-2.8,1.1s-2.3,0.6-3.7,0.7
						c-1.3,0.1-2.6-0.2-3.7-0.5c-1.1-0.4-2-0.8-2.8-1.3c-0.7-0.4-1.3-0.9-1.6-1.2C183.4,146,183.3,145.7,183.4,145.7z"/>
				</g>
			</g>
		</g>
	</g>
	<g>
		<g>
			<g>
				<path fill="#F4ADC6" d="M199.2,134.1c0.1,0.1-0.7,1.7-0.8,3.9c-0.2,2.2,0.4,3.9,0.2,4c-0.1,0.1-0.9-1.7-0.7-4
					C198.1,135.7,199.1,134,199.2,134.1z"/>
			</g>
		</g>
	</g>
	<g>
		<g>
			<g>
				<path fill="#F4ADC6" d="M187.5,137.9c0.1,0,0.4,1.2,1.3,2.4c0.9,1.2,2,1.8,2,2c0,0.1-1.4-0.3-2.3-1.7
					C187.5,139.2,187.4,137.8,187.5,137.9z"/>
			</g>
		</g>
	</g>
	<g>
		<g>
			<g>
				
					<ellipse transform="matrix(0.8583 -0.5131 0.5131 0.8583 -43.8471 115.4285)" fill="#F4ADC6" cx="187.1" cy="137.1" rx="0.2" ry="0.4"/>
			</g>
		</g>
	</g>
	<g>
		<g>
			<g>
				<path fill="#F4ADC6" d="M208.5,141.1c0,0.1-1.5,0.3-3.1,1.2c-1.7,0.8-2.7,1.9-2.8,1.8c-0.1-0.1,0.9-1.3,2.6-2.2
					C206.9,140.9,208.5,140.9,208.5,141.1z"/>
			</g>
		</g>
	</g>
	<g>
		<g>
			<g>
				<path fill="#F4ADC6" d="M200.1,132.5c0,0.1-0.1,0.3-0.1,0.4c-0.1,0.2-0.1,0.3-0.2,0.4c-0.1,0.1-0.4-0.2-0.3-0.6
					C199.7,132.3,200.1,132.3,200.1,132.5z"/>
			</g>
		</g>
	</g>
	<g>
		<g>
			<g>
				
					<ellipse transform="matrix(0.7071 -0.7071 0.7071 0.7071 -34.1366 180.3406)" fill="#F4ADC6" cx="200.6" cy="131.4" rx="0.3" ry="0.2"/>
			</g>
		</g>
	</g>
	<g>
		<g>
			<g>
				<ellipse fill="#F4ADC6" cx="209.2" cy="141" rx="0.6" ry="0.2"/>
			</g>
		</g>
	</g>
	<g>
		<g>
			<g>
				<path fill="#F4ADC6" d="M203.9,147.7c0-0.1,1.4,0.1,2.8,1c1.4,0.9,2.1,2.1,2,2.2c-0.1,0.1-1-0.9-2.3-1.8
					C205.2,148.2,203.9,147.8,203.9,147.7z"/>
			</g>
		</g>
	</g>
	<g>
		<g>
			<g>
				<path fill="#F4ADC6" d="M200.9,150.3c0.1,0,0.4,1.6,0.2,3.5c-0.2,2-0.8,3.5-0.9,3.4c-0.1,0,0.3-1.6,0.5-3.5
					C200.9,151.9,200.8,150.3,200.9,150.3z"/>
			</g>
		</g>
	</g>
	<g>
		<g>
			<g>
				<path fill="#F4ADC6" d="M185.4,152.5c0-0.1,1.6,0.5,3.7,0.3c1-0.1,1.9-0.3,2.5-0.6c0.3-0.1,0.6-0.2,0.7-0.3
					c0.2-0.1,0.4,0,0.3,0.1c0,0-0.1,0-0.2,0.1c-0.1,0.1-0.4,0.3-0.7,0.4c-0.6,0.3-1.5,0.6-2.6,0.7
					C186.9,153.5,185.3,152.6,185.4,152.5z"/>
			</g>
		</g>
	</g>
	<g opacity="0.58">
		<g>
			<g>
				<path fill="#F4ADC6" d="M199.6,159.5c-0.1-0.1-0.1-0.3,0-0.6s0.2-0.5,0.3-0.5s0.2,0.3,0.1,0.7
					C200,159.4,199.7,159.6,199.6,159.5z"/>
			</g>
		</g>
	</g>
	<g opacity="0.58">
		<g>
			<g>
				
					<ellipse transform="matrix(0.8001 -0.5998 0.5998 0.8001 -49.0239 156.055)" fill="#F4ADC6" cx="209.7" cy="151.6" rx="0.2" ry="0.6"/>
			</g>
		</g>
	</g>
	<g opacity="0.58">
		<g>
			<g>
				<path fill="#F4ADC6" d="M193.8,151.5c0.1,0.1,0,0.3-0.2,0.4c-0.2,0.1-0.4,0.1-0.5,0c0-0.1,0.1-0.3,0.2-0.4
					C193.6,151.4,193.8,151.4,193.8,151.5z"/>
			</g>
		</g>
	</g>
</g>
<path fill="#BAD262" d="M220.2,138c2-2.3,6-3.7,9.8-3c0.7,0.1,1.4,0.3,2.1,0.6c3.6,1.5,6.1,4.6,6.6,8.1c-0.3-0.4-0.6-0.6-0.6-0.6
	c-1.8-1.3-12.2-5.6-17.3-5.2C220.8,138,220.6,137.9,220.2,138z"/>
<path fill="#BAD262" d="M217.9,142.7c1.5,0.3,12.9,2.3,20,6.8c-2.4,5.3-8.6,8-13.9,5.8C219.3,153.4,217,148.8,217.9,142.7z"/>
<g>
	<g>
		<g>
			<path fill="#D7DA8D" d="M217.8,144.6c0,0,0.1,0.3,0.5,0.8c0.4,0.4,1.2,0.9,2.2,0.7c0.5-0.1,0.9-0.5,1.4-0.9
				c0.3-0.2,0.7-0.3,1-0.3c0.4,0,0.7,0.2,1.1,0.4c0.6,0.4,1.1,1,1.6,1.6s1,1.2,1.7,1.3s1.5-0.2,2.2-0.4c0.4-0.1,0.8-0.2,1.2-0.2
				s0.8,0.1,1.1,0.4c0.6,0.5,0.9,1.2,1.2,1.7c0.3,0.6,0.6,1,1,1.2s0.9,0.1,1.3,0.1c0.4-0.1,0.8-0.2,1-0.3c0.6-0.1,0.9-0.2,0.9-0.2
				s-0.3,0.2-0.9,0.4c-0.3,0.1-0.6,0.2-1,0.4c-0.4,0.1-0.9,0.2-1.5,0c-1.2-0.5-1.3-2.1-2.3-2.9c-0.5-0.4-1.2-0.3-1.9-0.1
				s-1.5,0.5-2.4,0.4c-0.9-0.2-1.5-0.9-2-1.5s-0.9-1.2-1.5-1.5c-0.5-0.4-1.2-0.4-1.7-0.1c-0.5,0.3-1,0.8-1.5,0.9
				c-1.2,0.2-2-0.4-2.4-0.9c-0.2-0.2-0.3-0.5-0.3-0.6C217.8,144.7,217.8,144.6,217.8,144.6z"/>
		</g>
	</g>
</g>
<g>
	<g>
		<g>
			<path fill="#D7DA8D" d="M217.5,146.7c0,0,0.3,0,0.8,0.3c0.2,0.2,0.5,0.4,0.8,0.6c0.3,0.2,0.6,0.5,1.1,0.7c0.4,0.1,0.9,0,1.3-0.4
				c0.2-0.2,0.5-0.4,0.8-0.5c0.3-0.2,0.7-0.3,1.1-0.1c0.8,0.3,1,1.1,1.5,1.6c0.4,0.5,1,0.9,1.7,1.1c0.7,0.2,1.4,0.1,2-0.1
				c0.7-0.2,1.5-0.4,2.2,0c0.7,0.3,1,0.9,1.3,1.4s0.5,1,0.8,1.4s0.6,0.7,0.9,0.8c0.3,0.1,0.7,0.1,0.9,0c0.5-0.2,0.6-0.5,0.6-0.5
				s0,0.4-0.5,0.7c-0.3,0.1-0.6,0.2-1.1,0.1c-0.4-0.1-0.8-0.4-1.1-0.8c-0.3-0.4-0.6-0.9-0.8-1.4c-0.3-0.5-0.6-1-1.2-1.2
				c-1-0.5-2.5,0.7-4.1,0.2c-0.8-0.2-1.5-0.7-1.9-1.3c-0.5-0.6-0.7-1.3-1.2-1.4c-0.5-0.2-1,0.2-1.5,0.6c-0.2,0.2-0.5,0.3-0.8,0.4
				c-0.3,0.1-0.6,0.1-0.9,0c-0.5-0.2-0.8-0.5-1.1-0.8s-0.5-0.5-0.7-0.7C217.8,146.8,217.5,146.8,217.5,146.7z"/>
		</g>
	</g>
</g>
<g>
	<g>
		<g>
			<path fill="#D7DA8D" d="M218.9,150.2c0,0,0.1,0.2,0.4,0.5c0.3,0.2,0.9,0.5,1.6,0.2c0.2-0.1,0.3-0.2,0.4-0.4
				c0.1-0.2,0.4-0.3,0.7-0.3c0.6,0.1,0.9,0.6,1.2,1c0.6,0.8,1.5,1.4,2.6,1.5c0.5,0.1,1.1,0.1,1.6-0.1c0.5-0.1,0.9-0.4,1.5-0.6
				c0.3-0.1,0.6-0.1,0.8-0.1c0.3,0.1,0.5,0.2,0.7,0.4c0.3,0.4,0.5,0.8,0.6,1.1c0.2,0.7,0.6,1.2,1,1.3c0.4,0.2,0.6,0,0.6,0.1
				c0,0-0.2,0.2-0.7,0.1c-0.5-0.1-1-0.6-1.2-1.4c-0.2-0.3-0.3-0.7-0.6-1s-0.7-0.4-1.1-0.2c-0.4,0.1-0.9,0.5-1.5,0.6
				c-0.6,0.2-1.2,0.2-1.8,0.1c-1.2-0.2-2.3-0.9-2.9-1.7c-0.3-0.4-0.6-0.8-0.9-0.9c-0.3-0.1-0.5,0.4-0.9,0.6c-0.8,0.4-1.5,0-1.8-0.3
				C218.9,150.5,218.9,150.2,218.9,150.2z"/>
		</g>
	</g>
</g>
<g>
	<g>
		<g>
			<path fill="#D7DA8D" d="M221.5,153.4c0,0,0.1-0.1,0.3-0.2c0.2-0.1,0.6-0.1,1,0c0.8,0.2,1.6,1.1,2.7,1.3c0.5,0.1,1-0.1,1.6-0.2
				c0.6-0.1,1.1,0.1,1.4,0.3c0.7,0.5,0.9,0.9,0.9,0.9c-0.1,0.1-0.4-0.3-1.1-0.6c-0.3-0.2-0.7-0.3-1.2-0.2s-1,0.3-1.7,0.2
				c-0.6-0.2-1.1-0.5-1.6-0.8c-0.4-0.3-0.8-0.5-1.1-0.7C222,153.2,221.5,153.5,221.5,153.4z"/>
		</g>
	</g>
</g>
<g>
	<g>
		<g>
			<path fill="#D7DA8D" d="M222,136.7c0,0,0-0.3,0.4-0.6c0.4-0.2,1-0.4,1.9-0.4s1.7,0.7,2.4,1.3c0.4,0.3,0.8,0.6,1.3,0.7
				c0.5,0.1,1-0.1,1.5-0.3c0.3-0.1,0.6-0.2,0.9-0.3c0.3,0,0.7,0,1,0.2c0.6,0.3,0.9,0.8,1.2,1.2s0.6,0.8,0.9,1.1
				c0.3,0.3,0.7,0.4,1,0.5c0.7,0.2,1.4,0.1,1.8,0.1c0.4,0,0.7,0,0.7,0s-0.2,0.1-0.7,0.2c-0.4,0.1-1.1,0.2-1.9,0.1
				c-0.4-0.1-0.8-0.2-1.2-0.5s-0.7-0.7-1-1.1c-0.3-0.4-0.7-0.8-1.1-1c-0.4-0.2-0.9-0.1-1.5,0.1c-0.3,0.1-0.5,0.3-0.9,0.3
				c-0.3,0.1-0.7,0.1-1,0c-0.6-0.2-1.1-0.5-1.5-0.8c-0.8-0.7-1.4-1.3-2.2-1.3c-0.7-0.1-1.4,0.1-1.7,0.2
				C222.1,136.5,222,136.7,222,136.7z"/>
		</g>
	</g>
</g>
<g>
	<g>
		<g>
			<path fill="#D7DA8D" d="M225.7,135.4c0,0,0.1-0.1,0.4-0.1c0.3,0,0.7,0.1,1.2,0.4c0.4,0.2,1,0.6,1.5,0.5c0.3,0,0.6-0.2,0.9-0.3
				c0.3-0.1,0.8-0.2,1.2-0.1c0.9,0.3,1.4,0.9,1.8,1.4c0.4,0.5,0.9,0.9,1.3,1c0.4,0.1,0.8,0.1,1.1,0c0.2-0.1,0.3-0.2,0.4-0.2
				c0,0,0,0.2-0.3,0.4c-0.2,0.2-0.7,0.3-1.2,0.2c-0.6-0.1-1.1-0.6-1.5-1.1c-0.5-0.5-0.9-1-1.6-1.2c-0.6-0.2-1.2,0.3-2,0.4
				c-0.8,0.1-1.3-0.4-1.8-0.6c-0.4-0.3-0.8-0.5-1-0.5C225.8,135.4,225.7,135.4,225.7,135.4z"/>
		</g>
	</g>
</g>
<path fill="#71B855" d="M218.1,139.3c0.6-1,1.5-1.3,2.1-1.3c0.4,0,0.6,0,0.6,0c5-0.4,15.4,3.9,17.3,5.2c0,0,0.3,0.2,0.6,0.6
	c0.5,0.6,1.2,1.6,0.9,3.1c-0.3,2-1.7,2.7-1.7,2.7l0,0c-7.1-4.5-18.5-6.6-20-6.8c-0.1,0-0.2,0-0.2,0
	C217.1,142.4,217.1,140.9,218.1,139.3z"/>
<path opacity="0.28" fill="#71B855" enable-background="new    " d="M225.2,139.3c2.5,0.4,5.1,1,7.4,1.9c1.6,0.6,3.6,1.5,4.5,3.2
	c0.8,1.5,0.3,3-0.7,4.3c0.5,0.3,1,0.6,1.4,0.9l0,0c0,0,1.4-0.7,1.7-2.7c0.2-1.5-0.4-2.5-0.9-3.1c-0.3-0.4-0.6-0.6-0.6-0.6
	c-1.8-1.3-12.2-5.6-17.3-5.2c0,0-0.3,0-0.6,0c-0.4,0-0.9,0.2-1.3,0.5C221,138.7,223.1,138.9,225.2,139.3z"/>
<path fill="#FFD35B" d="M236.9,113c0.2-0.5,0.8-0.8,1.3-0.6c0.6,0.2,0.9,0.8,0.7,1.4l-6.9,21.8c-0.7-0.3-1.4-0.5-2.1-0.6L236.9,113
	L236.9,113z"/>
<line fill="none" x1="230" y1="134.9" x2="230" y2="135"/>
<g id="XMLID_4_">
	<path fill="#D3E3A8" d="M222.9,152.6c0.1,0.1,0.2,0.2,0.4,0.2c0.7,0,1-1,0.8-1.7c-0.3-0.7-0.8-1.4-1.1-2.1
		c-0.3-0.6-0.3-1.1-0.6-1.7c-0.2-0.6-0.9-1.2-1.5-1c-0.7,0.3-0.6,1.3-0.4,2.1C221,150.3,221.2,152.1,222.9,152.6"/>
</g>
<path opacity="0.35" fill="#BAD262" enable-background="new    " d="M232.2,136.1c1.5,1,2.9,2.4,3.1,4.2c0,0,0,0.1-0.1,0.1
	c-1.1,0.2-2.2-0.1-3.3-0.4c-1.2-0.4-2.4-0.8-3.6-1.2c-1.3-0.4-2.6-0.6-4-0.7c-0.2,0-0.5,0-0.7,0c5.4,0.8,12.9,3.9,14.4,5
	c0,0,0.3,0.2,0.6,0.6c-0.5-3.6-3-6.6-6.6-8.1c-0.6-0.2-1.2-0.4-1.8-0.5C231,135.3,231.6,135.7,232.2,136.1z"/>
<path opacity="0.35" fill="#BAD262" enable-background="new    " d="M235.7,149.8c-1.1,3-4.1,5.5-7.3,6.2c4-0.2,7.8-2.7,9.5-6.5
	c-0.6-0.4-1.2-0.7-1.8-1.1C236,148.9,235.9,149.4,235.7,149.8z"/>
<path fill="#37BAC2" d="M201.5,83.5c-2.2-0.2-4.9-1.5-6.4-4c0-0.2,0-0.3,0-0.5c0-1.7-0.3-3.3-0.9-4.8c0.3-0.6,1.6-3.2,3.6-5.3
	c2.3-2.4,3.3-0.3,2.8,1.2c-0.6,1.4,0.5,2.2,1.5,3.1c1.1,0.9,1.7,1.8,0.2,4.8c-1,1.9,0.3,2.2,0.6,3C203.2,81.8,203.9,83.7,201.5,83.5
	z"/>
<path opacity="0.44" fill="#38BAC0" enable-background="new    " d="M200.5,70.2c-2,1.8-3.9,3.9-5.8,5.9c0,0.2,0.1,0.3,0.1,0.5
	c2.2-1.3,4.4-2.6,6.5-3.9C200.6,72,200.1,71.3,200.5,70.2z"/>
<path opacity="0.44" fill="#38BAC0" enable-background="new    " d="M195.1,79.2c2.3,0.3,4.5,0.5,6.8,0.5c-0.1-0.4-0.1-0.9,0.3-1.6
	c0.1-0.2,0.2-0.5,0.3-0.7c-2.5,0.6-5,1-7.5,1.5C195,79,195,79,195.1,79.2C195.1,79.1,195.1,79.1,195.1,79.2z"/>
<path fill="#37BAC2" d="M165.3,89.4c-2.2,1.1-2.2-0.9-2.2-1.7c0-0.8,1.1-1.6-0.6-3c-2.6-2.1-2.4-3.2-1.7-4.5
	c0.6-1.3,1.3-2.4,0.2-3.5s-0.9-3.5,2.1-2.2c2.6,1.1,5,3.2,5.6,3.8c0,1.4,0.2,3.1,0.8,4.7l0,0C169.1,86,167.3,88.4,165.3,89.4z"/>
<path opacity="0.44" fill="#38BAC0" enable-background="new    " d="M168.6,80.2c-0.7-0.2-1.4-0.4-2-0.6c-1.4-0.4-3.4-0.8-5.1-1.6
	c0,0.7-0.4,1.5-0.8,2.3c-0.2,0.4-0.2,0.1-0.3,0.5c0,0,5.4-0.3,7.8-0.5C168.6,80,168.2,80.3,168.6,80.2z"/>
<path opacity="0.44" fill="#38BAC0" enable-background="new    " d="M163,87.7c0,0.1,0,0.3,0,0.5c0.2-0.5,0.5-1.1,0.8-1.5
	c1.3-2.1,3.1-3.9,4.9-5.6c0-0.1,0-0.2,0-0.2c-0.4,0.1-5.9,3.1-6.6,3.7c0.1,0.1,0.2,0.2,0.3,0.2C164.1,86.1,163,86.9,163,87.7z"/>
<path fill="#E9426C" d="M182.8,90.3c-8.8,0.4-12.1-4.2-13.1-6.6c-0.1-0.2-0.2-0.4-0.2-0.6l0,0c-0.6-1.6-0.8-3.3-0.8-4.7
	c0-0.2,0-0.3,0-0.5c0.5-6.4,5.8-10.8,12.5-11.4c5.9-0.5,11.1,2.9,13.1,7.8c0.6,1.5,0.9,3.1,0.9,4.8c0,0.2,0,0.3,0,0.5
	C194.8,85.2,190.2,89.9,182.8,90.3z"/>
<g>
	<g>
		<path fill="none" stroke="#B07775" stroke-width="0.3596" stroke-miterlimit="10" d="M199.5,72.7"/>
	</g>
</g>
<g>
	<g>
		<path fill="none" stroke="#B07775" stroke-width="0.3596" stroke-miterlimit="10" d="M195.2,76"/>
	</g>
</g>
<g>
	<g>
		<g>
			<path fill="#97D2CB" d="M167.4,78.7c-0.1,0.1-1-0.6-2.1-1.3c-0.5-0.4-1-0.7-1.4-1c-0.4-0.2-0.6-0.3-0.6-0.4s0.3-0.1,0.8,0.1
				c0.4,0.2,1,0.5,1.6,0.9C166.8,77.8,167.5,78.6,167.4,78.7z"/>
		</g>
	</g>
</g>
<g>
	<g>
		<g>
			<path fill="#97D2CB" d="M197.4,71.3c0.1,0.1-0.7,0.9-1.4,2s-1.2,2.1-1.3,2c-0.1,0,0.1-1.2,0.9-2.3
				C196.3,71.8,197.3,71.2,197.4,71.3z"/>
		</g>
	</g>
</g>
<path opacity="0.42" fill="#E9426C" enable-background="new    " d="M191.1,86.5c-1.6,1-3.4,1.5-5.2,1.8c-1.7,0.3-3.5,0.3-5.2,0.1
	c-3.3-0.4-6.5-2-8.3-4.8c-2.9-4.4-2-10.5,1.2-14.4c-2.8,2-4.7,5.1-5,8.7c0,0.2,0,0.3,0,0.5c0,1.4,0.2,3.1,0.8,4.7l0,0
	c0.1,0.2,0.2,0.4,0.2,0.6c1.1,2.4,4.4,6.9,13.1,6.6c5.2-0.2,9.1-2.6,11-6C193,85.1,192.1,85.9,191.1,86.5z"/>
<g opacity="0.63">
	<path fill="#F39DAE" d="M182.1,69.9c-0.9,0.2-1.3,0.4-1.1,1.2c0.2,0.8,1,1.3,1.8,1.5s1.6,0.4,2.3,0.9c0.5,0.4,0.9,1.1,1.3,1.6
		c2,2.2,4.6,0.5,2.9-2.1c-0.7-1-1.8-1.6-2.8-2.2c-1.7-0.9-3.7-1.7-5.3-0.7"/>
</g>
<path fill="#FCC01F" d="M207.8,123.2c-0.7,2.9,1.4,2.9,2.6,2.2c1.2-0.7,2.4-1.4,3.6-2.1c-0.4-0.5-1.9-2.7-5-4.3
	C208.6,120.4,208.2,121.8,207.8,123.2z M210.2,120.6c0.4,0.2,0.4,0.9,0.1,1.6c-0.3,0.7-0.9,1.1-1.2,1c-0.4-0.2-0.4-0.9-0.1-1.6
	C209.3,120.8,209.9,120.4,210.2,120.6z"/>
<path fill="#FCC01F" d="M213.7,112.3c0,0,1.3,0.7,3.3,2.3c1.6,1.3,2.9,2.8,2.9,2.8c0.7,0.6,0.7,1.6,0,2.1c-0.8,0.5-1.5,1-2.2,1.5
	c-0.2-0.3-2-3.6-7.2-5.9c0.3-0.8,0.7-1.6,1.1-2.5C211.9,111.9,212.9,111.7,213.7,112.3z"/>
<path fill="#F49524" d="M209,119.1c3.1,1.5,4.7,3.7,5,4.3c1.1-0.7,2.3-1.4,3.5-2.2c-0.2-0.3-2-3.6-7.2-5.9
	C209.9,116.5,209.4,117.8,209,119.1z M210.7,118.1c0.2,0.1,0.2,0.3,0.1,0.5c-0.1,0.2-0.3,0.3-0.5,0.2c-0.2-0.1-0.2-0.3-0.1-0.5
	C210.3,118.1,210.5,118,210.7,118.1z"/>
<path fill="#FFD915" d="M210.2,120.6c0.4,0.2,0.4,0.9,0.1,1.6c-0.3,0.7-0.9,1.1-1.2,1c-0.4-0.2-0.4-0.9-0.1-1.6
	C209.3,120.8,209.9,120.4,210.2,120.6z"/>
<path fill="#FFD915" d="M210.7,118.1c0.2,0.1,0.2,0.3,0.1,0.5c-0.1,0.2-0.3,0.3-0.5,0.2c-0.2-0.1-0.2-0.3-0.1-0.5
	C210.3,118.1,210.5,118,210.7,118.1z"/>
<path opacity="0.46" fill="#E7D4C5" enable-background="new    " d="M212.5,112.1c0.9,0.5,1.7,1.2,2.5,1.8c1,0.9,2.1,1.8,2.8,3
	c0.2,0.5,0.4,1,0.4,1.5c0,0.6-0.3,1.1-0.6,1.6c-0.5,0.7-1.2,1.2-1.9,1.8c-0.8,0.6-1.6,1.2-2.4,1.8c-1.3,0.9-2.7,1.6-4.2,2.2
	c0.5,0,1-0.1,1.4-0.4c1.2-0.7,2.4-1.4,3.6-2.1c1.1-0.7,2.3-1.4,3.5-2.2c0.7-0.5,1.5-1,2.2-1.5s0.7-1.5,0-2.1c0,0-1.3-1.5-2.9-2.8
	c-2-1.7-3.3-2.3-3.3-2.3c-0.4-0.3-0.9-0.4-1.3-0.3C212.4,112,212.5,112.1,212.5,112.1z"/>
<g>
	<g>
		<g>
			
				<ellipse transform="matrix(0.993 -0.1179 0.1179 0.993 -12.7353 26.4981)" fill="#DCD987" cx="217.6" cy="120.9" rx="0.1" ry="0.1"/>
		</g>
	</g>
</g>
<g>
	<g>
		<g>
			<path fill="#FADE57" d="M210.5,115.2c0,0,0.1,0,0.4,0.1c0.2,0.1,0.5,0.2,0.9,0.4c0.8,0.4,1.8,1,2.9,1.8c1.1,0.8,1.9,1.7,2.4,2.4
				c0.3,0.3,0.4,0.6,0.6,0.9c0.1,0.2,0.2,0.3,0.2,0.3s-0.3-0.4-0.8-1.1s-1.3-1.5-2.4-2.3c-1-0.8-2.1-1.4-2.8-1.8
				C210.9,115.4,210.4,115.2,210.5,115.2z"/>
		</g>
	</g>
</g>
<g>
	<g>
		<g>
			<path fill="#FADE57" d="M209.1,119.1c0,0,0.4,0.1,0.9,0.3c0.5,0.3,1.2,0.7,1.9,1.3c0.7,0.6,1.2,1.2,1.6,1.7
				c0.3,0.5,0.5,0.8,0.5,0.8c-0.1,0-0.8-1.2-2.2-2.4C210.4,119.8,209,119.2,209.1,119.1z"/>
		</g>
	</g>
</g>
<g>
	<g>
		<g>
			<path fill="#FADE57" d="M212.2,112.6c0.1,0-0.2,0.5-0.5,1c-0.2,0.6-0.3,1.1-0.4,1.1c-0.1,0-0.1-0.6,0.2-1.2
				S212.1,112.5,212.2,112.6z"/>
		</g>
	</g>
</g>
<g enable-background="new    ">
	<path fill="#66C4FF" d="M483.3,115.6l-39.3,66.8V222c0,5.3-1.7,7.1-7.1,7.1h-19.2c-5.4,0-7.3-1.9-7.3-7.1v-39.6l-39.1-66.8
		c-2.4-3.9-1.7-7.1,3.6-7.1h20.4c8.5,0,10.9,0.3,14.1,6.3l18.2,34.7l18.7-34.7c3.2-5.9,5.6-6.3,13.9-6.3h19.5
		C484.9,108.4,485.5,111.7,483.3,115.6z"/>
	<path fill="#66C4FF" d="M527.9,138.2c30.1,0,39.6,15,39.6,36.7v41.8c0,6.3-1.4,8.2-6.5,10.2c-6.8,2.9-18.2,4.8-33.7,4.8
		c-32,0-40.5-9.2-40.5-28.2c0-22.1,12.2-28.4,41.3-28.4c2.9,0,5.8,0.2,7.6,0.2V171c0-5.6-2.5-8.7-9.5-8.7c-5.6,0-8.7,2.5-11,5.8
		c-2.2,3.1-3.9,4.4-9.3,2.2l-12.2-5.1c-4.6-2-6.1-4.4-3.6-9.4C496.2,144.1,508.8,138.2,527.9,138.2z M526.8,196.5
		c-7.3,0-9,3.1-9,6.8c0,3.9,1.5,6.8,8.7,6.8c4.4,0,6.8-0.2,8.5-0.5c0.5,0,0.8-0.2,0.8-0.8v-12.1
		C533.6,196.5,529.7,196.5,526.8,196.5z"/>
	<path fill="#66C4FF" d="M684.6,138.2c25.5,0,36.7,13.6,36.7,36.7v47.8c0,4.8-1.5,6.5-6.5,6.5h-18.7c-4.8,0-6.5-1.7-6.5-6.5v-46.9
		c0-6.1-2.7-9-8.7-9c-2.6,0-4.8,0.3-7.1,0.9c0.5,2.4,0.7,5.1,0.7,7.8v47.3c0,4.8-1.7,6.5-6.6,6.5h-18.5c-4.9,0-6.6-1.7-6.6-6.5
		v-46.9c0-6.1-2.6-9-8.7-9c-2,0-3.9,0.2-5.8,0.5c-0.5,0.2-0.7,0.5-0.7,1v54.4c0,4.8-1.5,6.5-6.5,6.5h-18.7c-4.9,0-6.5-1.7-6.5-6.5
		v-68c0-5.6,1.2-7.8,7-10.2c7.5-2.9,17.8-6.3,34.7-6.3c8.5,0,15.5,1.5,20.9,4.4C665.1,140.2,673.6,138.2,684.6,138.2z"/>
	<path fill="#66C4FF" d="M839,138.2c25.5,0,36.7,13.6,36.7,36.7v47.8c0,4.8-1.5,6.5-6.5,6.5h-18.7c-4.8,0-6.5-1.7-6.5-6.5v-46.9
		c0-6.1-2.7-9-8.7-9c-2.5,0-4.8,0.3-7.1,0.9c0.5,2.4,0.7,5.1,0.7,7.8v47.3c0,4.8-1.7,6.5-6.6,6.5h-18.5c-4.9,0-6.6-1.7-6.6-6.5
		v-46.9c0-6.1-2.6-9-8.7-9c-2,0-3.9,0.2-5.8,0.5c-0.5,0.2-0.7,0.5-0.7,1v54.4c0,4.8-1.5,6.5-6.5,6.5h-18.7c-4.9,0-6.5-1.7-6.5-6.5
		v-68c0-5.6,1.2-7.8,7-10.2c7.5-2.9,17.9-6.3,34.7-6.3c8.5,0,15.5,1.5,20.9,4.4C819.4,140.2,827.9,138.2,839,138.2z"/>
	<path fill="#66C4FF" d="M985.7,147.2V229c0,22.6-11.4,39.3-40.8,39.3c-19.2,0-30.8-5.6-37.9-16.8c-3.1-4.6-1.5-7.5,3.2-9.9l14.3-7
		c5.1-2.5,7-1,9.3,2.2c2.4,3.2,5.3,5.6,10.7,5.6c6.6,0,9.5-3.6,9.5-9.9v-6.6c-3.4,0.5-7.3,0.7-11.6,0.7c-26.2,0-38.2-13.6-38.2-36.7
		v-42.7c0-4.8,1.5-6.5,6.5-6.5h18.7c4.9,0,6.5,1.7,6.5,6.5v41.5c0,6.6,3.2,9.4,10.2,9.4c2.9,0,5.6-0.2,8-0.7v-50.1
		c0-4.8,1.7-6.5,6.5-6.5h18.7C984.1,140.7,985.7,142.4,985.7,147.2z"/>
</g>
<path fill="#FFA1BD" d="M256.3,85.5c-14.9,32.5-15.5,78.4-15.5,78.4c19.9-16.1,36.8-27.6,41.3-30.9L256.3,85.5z"/>
<path fill="#FFA1BD" d="M239,66.5C206.4,81.4,160.5,82,160.5,82c16.2-17.6,28.3-34.7,52.7-44.2L239,66.5z"/>
<path fill="#FFA1BD" d="M282.2,133c0,0,8.4-32.6-15.7-73.4c0,0-24.9-16.9-53.2-21.8c0,0-14.2,77.3-5.4,85.4
	C216.6,131.4,266.8,134.3,282.2,133z"/>
</svg>
